<svg xmlns="http://www.w3.org/2000/svg" fill="none" viewBox="0.49 0.49 21 21.02">
<path fill-rule="evenodd" clip-rule="evenodd" d="M11.0001 13.8294L18.0708 20.9C18.446 21.2752 18.9549 21.486 19.4855 21.486C20.0161 21.486 20.5249 21.2752 20.9001 20.9C21.2753 20.5248 21.4861 20.016 21.4861 19.4854C21.4861 18.9548 21.2753 18.4459 20.9001 18.0707L13.8268 11L20.8988 3.92936C21.0845 3.74358 21.2318 3.52305 21.3322 3.28035C21.4327 3.03766 21.4844 2.77755 21.4843 2.51489C21.4842 2.25222 21.4324 1.99214 21.3319 1.74949C21.2313 1.50684 21.0839 1.28638 20.8981 1.10069C20.7123 0.915002 20.4918 0.767723 20.2491 0.667262C20.0064 0.566802 19.7463 0.515127 19.4837 0.515189C19.221 0.515251 18.9609 0.567048 18.7183 0.667623C18.4756 0.768198 18.2551 0.915582 18.0695 1.10136L11.0001 8.17202L3.92946 1.10136C3.74505 0.910253 3.52443 0.757786 3.28048 0.652855C3.03652 0.547923 2.77411 0.492628 2.50855 0.490196C2.24299 0.487764 1.97961 0.538244 1.73377 0.63869C1.48793 0.739135 1.26456 0.887536 1.07669 1.07523C0.888814 1.26293 0.740203 1.48616 0.639526 1.73191C0.538848 1.97765 0.48812 2.24098 0.490302 2.50654C0.492483 2.7721 0.547531 3.03457 0.652232 3.27862C0.756933 3.52268 0.909192 3.74344 1.10012 3.92803L8.17346 11L1.10146 18.072C0.910526 18.2566 0.758267 18.4774 0.653566 18.7214C0.548864 18.9655 0.493817 19.2279 0.491635 19.4935C0.489454 19.7591 0.540181 20.0224 0.640859 20.2681C0.741537 20.5139 0.890148 20.7371 1.07802 20.9248C1.26589 21.1125 1.48927 21.2609 1.73511 21.3614C1.98094 21.4618 2.24433 21.5123 2.50988 21.5099C2.77544 21.5074 3.03785 21.4521 3.28181 21.3472C3.52577 21.2423 3.74639 21.0898 3.93079 20.8987L11.0001 13.8294Z" fill="#292064"/>
</svg>