<svg viewBox="0 0 26 24" fill="none" xmlns="http://www.w3.org/2000/svg">
<path d="M23.6663 19.3331C24.18 19.3333 24.6738 19.5312 25.0455 19.8856C25.4172 20.2401 25.6384 20.7239 25.663 21.237C25.6877 21.75 25.5141 22.2529 25.1781 22.6413C24.8421 23.0298 24.3696 23.2742 23.8583 23.3237L23.6663 23.3331H2.33301C1.81939 23.3328 1.32555 23.135 0.953826 22.7805C0.582103 22.4261 0.360992 21.9422 0.336309 21.4292C0.311626 20.9162 0.485264 20.4133 0.821242 20.0248C1.15722 19.6363 1.62978 19.392 2.14101 19.3424L2.33301 19.3331H23.6663ZM23.6663 9.99975C24.1968 9.99975 24.7055 10.2105 25.0806 10.5855C25.4556 10.9606 25.6663 11.4693 25.6663 11.9997C25.6663 12.5302 25.4556 13.0389 25.0806 13.414C24.7055 13.789 24.1968 13.9997 23.6663 13.9997H2.33301C1.80257 13.9997 1.29387 13.789 0.918794 13.414C0.543722 13.0389 0.333008 12.5302 0.333008 11.9997C0.333008 11.4693 0.543722 10.9606 0.918794 10.5855C1.29387 10.2105 1.80257 9.99975 2.33301 9.99975H23.6663ZM23.6663 0.666412C24.1968 0.666412 24.7055 0.877126 25.0806 1.2522C25.4556 1.62727 25.6663 2.13598 25.6663 2.66641C25.6663 3.19685 25.4556 3.70555 25.0806 4.08063C24.7055 4.4557 24.1968 4.66641 23.6663 4.66641H2.33301C1.80257 4.66641 1.29387 4.4557 0.918794 4.08063C0.543722 3.70555 0.333008 3.19685 0.333008 2.66641C0.333008 2.13598 0.543722 1.62727 0.918794 1.2522C1.29387 0.877126 1.80257 0.666412 2.33301 0.666412H23.6663Z" fill="white"/>
</svg>
