<svg xmlns="http://www.w3.org/2000/svg" fill="none" viewBox="0.33 0.97 25.33 22.67">
<path d="M23.6663 19.6331C24.18 19.6334 24.6738 19.8312 25.0455 20.1857C25.4172 20.5401 25.6384 21.024 25.663 21.537C25.6877 22.05 25.5141 22.5529 25.1781 22.9414C24.8421 23.3299 24.3696 23.5742 23.8583 23.6238L23.6663 23.6331H2.33301C1.81939 23.6329 1.32555 23.435 0.953826 23.0806C0.582103 22.7261 0.360992 22.2423 0.336309 21.7292C0.311626 21.2162 0.485264 20.7134 0.821242 20.3249C1.15722 19.9364 1.62978 19.692 2.14101 19.6425L2.33301 19.6331H23.6663ZM23.6663 10.2998C24.1968 10.2998 24.7055 10.5105 25.0806 10.8856C25.4556 11.2607 25.6663 11.7694 25.6663 12.2998C25.6663 12.8302 25.4556 13.3389 25.0806 13.714C24.7055 14.0891 24.1968 14.2998 23.6663 14.2998H2.33301C1.80257 14.2998 1.29387 14.0891 0.918794 13.714C0.543722 13.3389 0.333008 12.8302 0.333008 12.2998C0.333008 11.7694 0.543722 11.2607 0.918794 10.8856C1.29387 10.5105 1.80257 10.2998 2.33301 10.2998H23.6663ZM23.6663 0.966461C24.1968 0.966461 24.7055 1.17717 25.0806 1.55225C25.4556 1.92732 25.6663 2.43603 25.6663 2.96646C25.6663 3.49689 25.4556 4.0056 25.0806 4.38067C24.7055 4.75575 24.1968 4.96646 23.6663 4.96646H2.33301C1.80257 4.96646 1.29387 4.75575 0.918794 4.38067C0.543722 4.0056 0.333008 3.49689 0.333008 2.96646C0.333008 2.43603 0.543722 1.92732 0.918794 1.55225C1.29387 1.17717 1.80257 0.966461 2.33301 0.966461H23.6663Z" fill="#292064"/>
</svg>