<svg viewBox="0 0 20 20" fill="none" xmlns="http://www.w3.org/2000/svg">
<path d="M10.2168 3.88792C10.1587 3.83324 10.0813 3.80273 10.0008 3.80273C9.92034 3.80273 9.84296 3.83324 9.78479 3.88792L2.59351 10.6377C2.56296 10.6664 2.53867 10.7009 2.52209 10.7391C2.5055 10.7773 2.49697 10.8184 2.49702 10.86L2.49585 17.1949C2.49585 17.5206 2.62755 17.833 2.86196 18.0633C3.09638 18.2936 3.41432 18.423 3.74583 18.423H7.49967C7.66546 18.423 7.82442 18.3583 7.94163 18.2431C8.05884 18.128 8.12467 17.9718 8.12467 17.8089V12.5893C8.12467 12.5079 8.15759 12.4298 8.21621 12.3722C8.27484 12.3146 8.35429 12.2823 8.43717 12.2823H11.5621C11.645 12.2823 11.7245 12.3146 11.7831 12.3722C11.8417 12.4298 11.8746 12.5079 11.8746 12.5893V17.8089C11.8746 17.9718 11.9405 18.128 12.0577 18.2431C12.1749 18.3583 12.3339 18.423 12.4996 18.423H16.2519C16.5834 18.423 16.9014 18.2936 17.1358 18.0633C17.3702 17.833 17.5019 17.5206 17.5019 17.1949V10.86C17.502 10.8184 17.4934 10.7773 17.4768 10.7391C17.4603 10.7009 17.436 10.6664 17.4054 10.6377L10.2168 3.88792Z" fill="white"/>
<path d="M19.1754 9.37075L16.2536 6.62429V2.45666C16.2536 2.2938 16.1878 2.13761 16.0705 2.02244C15.9533 1.90728 15.7944 1.84259 15.6286 1.84259H13.7536C13.5879 1.84259 13.4289 1.90728 13.3117 2.02244C13.1945 2.13761 13.1286 2.2938 13.1286 2.45666V3.68481L10.8662 1.55935C10.6545 1.34903 10.3396 1.22852 9.99938 1.22852C9.66033 1.22852 9.34625 1.34903 9.13454 1.55973L0.826085 9.36997C0.583122 9.60025 0.552652 9.97906 0.773743 10.2285C0.82926 10.2915 0.897243 10.3427 0.973543 10.379C1.04984 10.4153 1.13288 10.4361 1.21758 10.4399C1.30228 10.4437 1.38689 10.4305 1.46625 10.4012C1.54561 10.3718 1.61806 10.3269 1.6792 10.2692L9.78454 2.6593C9.84271 2.60464 9.92008 2.57414 10.0005 2.57414C10.081 2.57414 10.1585 2.60464 10.2166 2.6593L18.3227 10.2692C18.4421 10.3817 18.6021 10.4431 18.7675 10.4399C18.9329 10.4368 19.0903 10.3693 19.2051 10.2523C19.445 10.0082 19.425 9.60525 19.1754 9.37075Z" fill="white"/>
</svg>
