<svg viewBox="0 0 18 18" fill="none" xmlns="http://www.w3.org/2000/svg">
<path d="M14.8333 1.5C15.2754 1.5 15.6993 1.67559 16.0118 1.98816C16.3244 2.30072 16.5 2.72464 16.5 3.16667V14.8333C16.5 15.2754 16.3244 15.6993 16.0118 16.0118C15.6993 16.3244 15.2754 16.5 14.8333 16.5H3.16667C2.72464 16.5 2.30072 16.3244 1.98816 16.0118C1.67559 15.6993 1.5 15.2754 1.5 14.8333V3.16667C1.5 2.72464 1.67559 2.30072 1.98816 1.98816C2.30072 1.67559 2.72464 1.5 3.16667 1.5H14.8333ZM14.4167 14.4167V10C14.4167 9.27949 14.1304 8.5885 13.621 8.07903C13.1115 7.56955 12.4205 7.28333 11.7 7.28333C10.9917 7.28333 10.1667 7.71667 9.76667 8.36667V7.44167H7.44167V14.4167H9.76667V10.3083C9.76667 9.66667 10.2833 9.14167 10.925 9.14167C11.2344 9.14167 11.5312 9.26458 11.75 9.48338C11.9688 9.70217 12.0917 9.99891 12.0917 10.3083V14.4167H14.4167ZM4.73333 6.13333C5.10464 6.13333 5.46073 5.98583 5.72328 5.72328C5.98583 5.46073 6.13333 5.10464 6.13333 4.73333C6.13333 3.95833 5.50833 3.325 4.73333 3.325C4.35982 3.325 4.0016 3.47338 3.73749 3.73749C3.47338 4.0016 3.325 4.35982 3.325 4.73333C3.325 5.50833 3.95833 6.13333 4.73333 6.13333ZM5.89167 14.4167V7.44167H3.58333V14.4167H5.89167Z" fill="#0474B3"/>
</svg>
