<svg viewBox="0 0 18 18" fill="none" xmlns="http://www.w3.org/2000/svg">
<path d="M15.7778 11.5845L12.2446 10.0012L12.2348 9.9967C11.8622 9.83732 11.4342 9.87681 11.097 10.1017C11.0775 10.1146 11.0587 10.1286 11.0408 10.1437L9.21529 11.7C8.05878 11.1382 6.86478 9.9532 6.30303 8.81169L7.86153 6.95843C7.87653 6.93968 7.89079 6.92093 7.90429 6.90068C8.12429 6.56449 8.16145 6.14051 8.00328 5.77117V5.76217L6.41553 2.2229C6.2041 1.73502 5.69683 1.44445 5.16902 1.5089C3.06668 1.78554 1.4962 3.57945 1.50001 5.69993C1.50001 11.655 6.34503 16.5 12.3 16.5C14.4205 16.5038 16.2144 14.9333 16.4911 12.831C16.5556 12.3034 16.2654 11.7961 15.7778 11.5845ZM12.3 15.3C7.0005 15.2942 2.7058 10.9995 2.70001 5.69993C2.69418 4.18486 3.81358 2.90077 5.31527 2.69991C5.31497 2.7029 5.31497 2.70591 5.31527 2.7089L6.89028 6.23392L5.34002 8.08944C5.32429 8.10754 5.30999 8.12685 5.29727 8.14719C5.06771 8.49945 5.03926 8.94616 5.22227 9.32469C5.90177 10.7145 7.30203 12.1042 8.70679 12.783C9.08815 12.9643 9.53676 12.9318 9.88804 12.6975C9.9073 12.6845 9.92583 12.6705 9.94354 12.6555L11.7668 11.1L15.2918 12.6787H15.3001C15.1016 14.1826 13.817 15.3051 12.3 15.3Z" fill="#454545"/>
</svg>
