<svg viewBox="0 0 34 33" fill="none" xmlns="http://www.w3.org/2000/svg">
<path d="M5.30035 13.1648L9.53299 14.9617C10.0122 14.0034 10.5246 13.0584 11.0703 12.1266C11.616 11.1949 12.195 10.3032 12.8073 9.4513L9.65278 8.81241L5.30035 13.1648ZM11.4497 16.3992L16.7604 21.71C18.2778 21.0178 19.7019 20.2326 21.033 19.3541C22.364 18.4756 23.4422 17.6237 24.2674 16.7985C26.4236 14.6423 28.0075 12.4328 29.0191 10.1701C30.0307 7.90735 30.5764 5.35179 30.6562 2.50339C27.8078 2.58325 25.2523 3.12896 22.9896 4.14054C20.7269 5.15214 18.5174 6.73602 16.3611 8.89227C15.5359 9.71748 14.684 10.7956 13.8056 12.1266C12.9271 13.4577 12.1418 14.8819 11.4497 16.3992ZM20.5938 12.5659C20.0613 12.0335 19.7951 11.3746 19.7951 10.5893C19.7951 9.80405 20.0613 9.1452 20.5938 8.61276C21.1262 8.08033 21.785 7.81415 22.5703 7.81415C23.3556 7.81415 24.0144 8.08033 24.5469 8.61276C25.0793 9.1452 25.3455 9.80405 25.3455 10.5893C25.3455 11.3746 25.0793 12.0335 24.5469 12.5659C24.0144 13.0983 23.3556 13.3645 22.5703 13.3645C21.785 13.3645 21.1262 13.0983 20.5938 12.5659ZM19.9948 27.8593L24.3472 23.5069L23.7083 20.3523C22.8565 20.9646 21.9647 21.5436 21.033 22.0893C20.1012 22.635 19.1562 23.1475 18.1979 23.6267L19.9948 27.8593ZM33.0122 0.147484C33.2517 3.76785 32.7992 7.06881 31.6545 10.0503C30.5099 13.0317 28.6198 15.8402 25.9844 18.4756L25.9045 18.5555L25.8247 18.6353L26.7031 23.0277C26.783 23.427 26.763 23.813 26.6432 24.1857C26.5234 24.5584 26.3172 24.8911 26.0243 25.1839L19.1962 32.052L15.8021 24.1457L9.01389 17.3576L1.10764 13.9635L7.97569 7.13533C8.26855 6.84248 8.60125 6.6362 8.97396 6.51641C9.34667 6.39662 9.73264 6.37665 10.1319 6.45651L14.5243 7.33498C14.5509 7.30839 14.5776 7.28842 14.6042 7.27509C14.6308 7.26175 14.6574 7.24179 14.684 7.21519C17.3194 4.57978 20.1279 2.68307 23.1094 1.52509C26.0908 0.367102 29.3918 -0.0920997 33.0122 0.147484ZM3.78299 22.1891C4.7147 21.2574 5.85275 20.785 7.19705 20.7716C8.54135 20.7583 9.67937 21.2175 10.6111 22.1492C11.5429 23.081 12.0021 24.219 11.9887 25.5633C11.9754 26.9076 11.5029 28.0456 10.5712 28.9773C9.87902 29.6695 8.80761 30.2418 7.35677 30.6944C5.90593 31.1469 3.72974 31.5728 0.828125 31.9721C1.22743 29.0705 1.6467 26.8876 2.08594 25.4235C2.52517 23.9594 3.09085 22.8813 3.78299 22.1891ZM5.46007 23.9062C5.08738 24.3055 4.75463 24.931 4.46181 25.7829C4.16898 26.6348 3.91609 27.7262 3.70312 29.0572C5.03415 28.8442 6.12555 28.5914 6.97743 28.2985C7.82931 28.0057 8.45486 27.673 8.85417 27.3003C9.35993 26.8477 9.61948 26.282 9.63281 25.6032C9.64615 24.9244 9.41319 24.3321 8.93403 23.8263C8.42827 23.3471 7.83594 23.1142 7.15712 23.1275C6.4783 23.1409 5.91264 23.4004 5.46007 23.9062Z" fill="#454545"/>
</svg>