<svg viewBox="0 0 40 20" fill="none" xmlns="http://www.w3.org/2000/svg">
<path d="M0.833252 19.5833V17.467C0.833252 16.4402 1.38562 15.6046 2.49037 14.9601C3.59511 14.3154 5.04433 13.993 6.83801 13.993C7.16171 13.993 7.47304 13.9996 7.77198 14.013C8.07093 14.0263 8.36681 14.0549 8.65964 14.0988C8.44667 14.5607 8.28695 15.0288 8.18047 15.5032C8.074 15.9773 8.02075 16.4721 8.02075 16.9878V19.5833H0.833252ZM10.4166 19.5833V16.9878C10.4166 16.1359 10.6495 15.3573 11.1154 14.6519C11.5812 13.9465 12.2401 13.3275 13.0919 12.7951C13.9438 12.2627 14.962 11.8634 16.1466 11.5972C17.3312 11.331 18.6157 11.1979 19.9999 11.1979C21.4108 11.1979 22.7086 11.331 23.8931 11.5972C25.0777 11.8634 26.096 12.2627 26.9478 12.7951C27.7997 13.3275 28.4519 13.9465 28.9044 14.6519C29.357 15.3573 29.5833 16.1359 29.5833 16.9878V19.5833H10.4166ZM31.9791 19.5833V16.9878C31.9791 16.4591 31.9325 15.961 31.8393 15.4932C31.7461 15.0255 31.5931 14.5618 31.3801 14.102C31.673 14.0559 31.9681 14.0263 32.2654 14.013C32.5627 13.9996 32.8666 13.993 33.177 13.993C34.9739 13.993 36.4214 14.3094 37.5194 14.9422C38.6175 15.5749 39.1666 16.4166 39.1666 17.467V19.5833H31.9791ZM12.8124 17.1875H27.1874V16.9479C27.1874 15.9629 26.5152 15.1576 25.1709 14.5321C23.8266 13.9065 22.1029 13.5937 19.9999 13.5937C17.8969 13.5937 16.1732 13.9065 14.8289 14.5321C13.4846 15.1576 12.8124 15.9762 12.8124 16.9878V17.1875ZM6.80567 12.7951C6.04512 12.7951 5.39199 12.5214 4.84627 11.9741C4.30056 11.4265 4.0277 10.7685 4.0277 9.99996C4.0277 9.22794 4.30136 8.56909 4.84867 8.0234C5.39625 7.47771 6.05431 7.20482 6.82283 7.20482C7.59483 7.20482 8.25368 7.47771 8.7994 8.0234C9.34509 8.56909 9.61797 9.23369 9.61797 10.0171C9.61797 10.7776 9.34509 11.4308 8.7994 11.9765C8.25368 12.5222 7.5891 12.7951 6.80567 12.7951ZM33.1598 12.7951C32.3993 12.7951 31.7461 12.5214 31.2004 11.9741C30.6547 11.4265 30.3819 10.7685 30.3819 9.99996C30.3819 9.22794 30.6555 8.56909 31.2028 8.0234C31.7504 7.47771 32.4085 7.20482 33.177 7.20482C33.949 7.20482 34.6079 7.47771 35.1536 8.0234C35.6993 8.56909 35.9721 9.23369 35.9721 10.0171C35.9721 10.7776 35.6993 11.4308 35.1536 11.9765C34.6079 12.5222 33.9433 12.7951 33.1598 12.7951ZM19.9999 9.99996C18.6689 9.99996 17.5376 9.53413 16.6058 8.60239C15.6741 7.67065 15.2083 6.53934 15.2083 5.20829C15.2083 3.85065 15.6741 2.71263 16.6058 1.79423C17.5376 0.875827 18.6689 0.416626 19.9999 0.416626C21.3576 0.416626 22.4956 0.875827 23.414 1.79423C24.3324 2.71263 24.7916 3.85065 24.7916 5.20829C24.7916 6.53934 24.3324 7.67065 23.414 8.60239C22.4956 9.53413 21.3576 9.99996 19.9999 9.99996ZM20.0139 7.60413C20.6967 7.60413 21.2644 7.37317 21.7169 6.91133C22.1695 6.44949 22.3958 5.87713 22.3958 5.19432C22.3958 4.5115 22.1675 3.94385 21.7109 3.49128C21.2544 3.03871 20.6887 2.81246 20.0139 2.81246C19.3391 2.81246 18.7687 3.0407 18.3029 3.49727C17.837 3.95383 17.6041 4.51949 17.6041 5.19432C17.6041 5.86914 17.835 6.43951 18.2969 6.90534C18.7587 7.37117 19.3311 7.60413 20.0139 7.60413Z" fill="#454545"/>
</svg>
