<svg viewBox="0 0 33 33" fill="none" xmlns="http://www.w3.org/2000/svg">
<path d="M25.1024 25.0226C25.8457 25.0226 26.4774 24.7622 26.9975 24.2415C27.5177 23.7208 27.7778 23.0886 27.7778 22.3448C27.7778 21.6011 27.5177 20.9762 26.9975 20.4705C26.4774 19.9647 25.8457 19.7118 25.1024 19.7118C24.3703 19.7118 23.7481 19.9694 23.2357 20.4845C22.7232 20.9998 22.467 21.6254 22.467 22.3612C22.467 23.0973 22.7232 23.7248 23.2357 24.2439C23.7481 24.763 24.3703 25.0226 25.1024 25.0226ZM25.094 30.3333C25.9781 30.3333 26.8061 30.1271 27.5781 29.7144C28.3501 29.3018 28.9757 28.7361 29.4549 28.0174C28.7627 27.6446 28.0573 27.3452 27.3385 27.1189C26.6198 26.8927 25.8744 26.7795 25.1024 26.7795C24.3304 26.7795 23.5851 26.8927 22.8663 27.1189C22.1476 27.3452 21.4422 27.6446 20.75 28.0174C21.2292 28.7361 21.8519 29.3018 22.6184 29.7144C23.3845 30.1271 24.2097 30.3333 25.094 30.3333ZM0.625 29.375V0.625H29.375V16.158C29.0023 15.945 28.6097 15.772 28.1971 15.6389C27.7844 15.5058 27.3785 15.3993 26.9792 15.3194V3.02083H3.02083V26.9792H15.3594C15.4658 27.4051 15.5859 27.8199 15.7195 28.2238C15.8535 28.6277 16.0129 29.0114 16.1979 29.375H0.625ZM3.02083 25.1024V26.9792V3.02083V15.3194V15.1597V25.1024ZM7.01389 22.9861H15.4392C15.5457 22.5602 15.6655 22.1476 15.7986 21.7483C15.9317 21.349 16.1047 20.963 16.3177 20.5903H7.01389V22.9861ZM7.01389 16.1979H20.75C21.1227 16.0116 21.4821 15.8585 21.8281 15.7387C22.1742 15.6189 22.5602 15.5058 22.9861 15.3993V13.8021H7.01389V16.1979ZM7.01389 9.40972H22.9861V7.01389H7.01389V9.40972ZM25.0825 32.5295C23.0194 32.5295 21.2558 31.7908 19.7917 30.3134C18.3276 28.8359 17.5955 27.0856 17.5955 25.0625C17.5955 22.9747 18.3274 21.1948 19.7913 19.723C21.2551 18.2514 23.0255 17.5156 25.1024 17.5156C27.1522 17.5156 28.9158 18.2514 30.3932 19.723C31.8707 21.1948 32.6094 22.9747 32.6094 25.0625C32.6094 27.0856 31.8707 28.8359 30.3932 30.3134C28.9158 31.7908 27.1455 32.5295 25.0825 32.5295Z" fill="#454545"/>
</svg>