<svg viewBox="0 0 180 43" fill="none" xmlns="http://www.w3.org/2000/svg">
<path fill-rule="evenodd" clip-rule="evenodd" d="M1.79688 12.1001C2.9619 12.7082 3.9398 13.2448 5.38854 13.5756C5.74469 12.0673 6.77389 11.3519 6.88557 10.0313C5.73563 9.72724 5.02937 8.85085 3.89453 8.26062L1.79989 12.0971L1.79688 12.1001Z" fill="white"/>
<path fill-rule="evenodd" clip-rule="evenodd" d="M26.6192 38.672C26.8999 39.8614 27.2349 41.024 27.5156 42.2163C29.2873 42.0703 30.1505 41.3936 31.7049 41.0359C31.6023 39.8375 30.7059 38.4246 30.2079 37.4915C29.3447 37.9417 27.8175 38.5766 26.6162 38.672H26.6192Z" fill="white"/>
<path fill-rule="evenodd" clip-rule="evenodd" d="M12.5567 41.0364C14.1835 41.409 14.9532 42.1781 16.746 42.2198C16.9543 41.3404 17.3044 39.6711 17.6424 38.9706C16.4412 38.4012 15.2942 38.1419 14.0507 37.495C13.5527 38.4221 12.6563 39.835 12.5537 41.0393L12.5567 41.0364Z" fill="white"/>
<path fill-rule="evenodd" clip-rule="evenodd" d="M12.5537 1.17459C12.6563 2.37293 13.5527 3.7859 14.0507 4.71894C15.2912 4.07207 16.4412 3.80975 17.6424 3.24337C17.3044 2.54583 16.9512 0.873519 16.746 -0.00585938C14.9532 0.0328929 14.1835 0.801976 12.5567 1.17757L12.5537 1.17459Z" fill="white"/>
<path fill-rule="evenodd" clip-rule="evenodd" d="M1.79989 30.109L3.89453 33.9455C5.02937 33.3552 5.73865 32.4758 6.88557 32.1748C6.77691 30.8542 5.74469 30.1388 5.38854 28.6304C3.94584 28.9643 2.96492 29.4979 1.79688 30.106L1.79989 30.109Z" fill="white"/>
<path fill-rule="evenodd" clip-rule="evenodd" d="M32.5938 5.89966C33.1038 6.58528 34.8061 7.74487 35.5848 8.26057L38.0507 5.96822C37.4018 5.04711 35.784 3.52981 34.6884 3.24066C33.7769 3.83983 33.2215 4.96961 32.5938 5.89966Z" fill="white"/>
<path fill-rule="evenodd" clip-rule="evenodd" d="M0 19.4791C1.50005 19.4791 1.84412 19.7742 3.59166 19.7742C3.62185 18.4596 4.08665 17.1808 4.18927 15.9378C2.74053 15.8185 2.31496 15.3475 0.597604 15.3475C0.250511 16.8171 0 17.619 0 19.4821L0 19.4791Z" fill="white"/>
<path fill-rule="evenodd" clip-rule="evenodd" d="M32.5938 36.3103C32.9891 36.8945 34.1994 38.6145 34.6884 38.9693C35.784 38.6801 37.4018 37.1658 37.9812 36.3103L35.6572 33.8778C34.8031 34.4651 33.1008 35.6246 32.5938 36.3103Z" fill="white"/>
<path fill-rule="evenodd" clip-rule="evenodd" d="M20.3653 5.60018C20.3653 6.61967 20.5857 6.74188 20.6641 7.66598C22.0495 7.66598 23.6552 8.08927 23.6552 6.78064V4.71484H20.3623V5.60018H20.3653Z" fill="white"/>
<path fill-rule="evenodd" clip-rule="evenodd" d="M20.3623 36.6033V37.4887H23.6552C23.6552 33.1961 24.12 35.3305 20.6641 34.5375C20.5857 35.4616 20.3623 35.5898 20.3623 36.6033Z" fill="white"/>
<path fill-rule="evenodd" clip-rule="evenodd" d="M6.00329 25.6828C6.82424 25.2953 7.79308 25.2237 8.69854 24.7975L8.39974 22.1385C3.97204 22.1385 5.71656 22.2905 6.00329 25.6828Z" fill="white"/>
<path fill-rule="evenodd" clip-rule="evenodd" d="M6.30151 20.0715H8.39614L8.69494 17.4125C8.04301 17.1055 6.97457 16.8431 5.99969 16.8223C5.61336 18.4528 4.84069 20.0715 6.30151 20.0715Z" fill="white"/>
<path fill-rule="evenodd" clip-rule="evenodd" d="M33.2383 12.9884C33.7363 13.9155 34.2162 14.6816 34.7353 15.6474L37.1257 14.458C36.8269 13.1881 36.2022 12.5771 35.6347 11.5158C34.8017 12.0673 34.1649 12.5085 33.2383 12.9914V12.9884Z" fill="white"/>
<path fill-rule="evenodd" clip-rule="evenodd" d="M14.9722 6.19058C15.0899 7.61547 15.5637 7.55287 15.8686 8.84958C16.8857 8.61409 17.4079 8.22954 18.5638 7.96424C18.4703 3.83861 17.1272 5.69872 14.9722 6.19058Z" fill="white"/>
<path fill-rule="evenodd" clip-rule="evenodd" d="M33.2383 29.2256C34.2826 29.7711 34.5874 30.1556 35.6317 30.7012C36.2022 29.6399 36.8269 29.0318 37.1287 27.75C36.2565 27.2969 35.7675 26.8945 34.4335 26.8647C34.189 27.908 33.694 28.385 33.2383 29.2256Z" fill="white"/>
<path fill-rule="evenodd" clip-rule="evenodd" d="M25.4414 7.96216C26.5944 8.22747 27.1195 8.61499 28.1367 8.8475C28.5683 8.04265 28.9365 7.33616 29.0331 6.1885C27.8318 5.91127 27.4998 5.4224 26.042 5.30316C25.8338 6.1885 25.5259 6.98441 25.4444 7.96216H25.4414Z" fill="white"/>
<path fill-rule="evenodd" clip-rule="evenodd" d="M14.9752 36.0177C16.1764 36.295 16.5084 36.7838 17.9662 36.9031C18.2801 36.2622 18.5427 35.2039 18.5638 34.2441C17.4079 33.9788 16.8857 33.5912 15.8686 33.3587C15.5607 34.6554 15.0899 34.5928 14.9722 36.0177H14.9752Z" fill="white"/>
<path fill-rule="evenodd" clip-rule="evenodd" d="M25.4444 34.2441C25.5259 35.2218 25.8338 36.0148 26.042 36.9031C27.4998 36.7838 27.8318 36.292 29.0331 36.0177C29.0029 34.7002 28.5954 34.2202 28.1367 33.3587C27.4244 33.6956 26.3016 34.0473 25.4414 34.2441H25.4444Z" fill="white"/>
<path fill-rule="evenodd" clip-rule="evenodd" d="M6.87598 14.4635C7.74824 14.9166 8.23719 15.319 9.57123 15.3488C9.7644 14.6334 10.3982 13.6735 10.7695 12.9879C9.72516 12.4424 9.42032 12.0579 8.37602 11.5124C8.0078 12.8657 7.24118 12.9313 6.87598 14.4635Z" fill="white"/>
<path fill-rule="evenodd" clip-rule="evenodd" d="M10.1123 32.4002C10.7793 33.3512 11.6999 34.2246 12.877 34.5346C13.2965 33.7536 13.6527 33.2498 14.0752 32.4688C13.4655 31.5686 12.874 31.2883 11.9806 30.6981L10.1153 32.4002H10.1123Z" fill="white"/>
<path fill-rule="evenodd" clip-rule="evenodd" d="M6.87598 27.7475L8.37301 30.6987C9.4173 30.1531 9.72214 29.7686 10.7664 29.2231C10.3982 28.5375 9.76138 27.5776 9.56821 26.8622C8.41224 26.9576 7.69391 27.3212 6.87598 27.7475Z" fill="white"/>
<path fill-rule="evenodd" clip-rule="evenodd" d="M29.9336 32.1737C30.329 33.8519 30.7666 33.1961 31.1318 34.5346C32.3059 34.2275 33.2265 33.3482 33.8271 32.4688L32.1007 30.6295C31.3371 31.1572 30.6731 31.6848 29.9366 32.1737H29.9336Z" fill="white"/>
<path fill-rule="evenodd" clip-rule="evenodd" d="M29.9366 10.0316C30.6761 10.5205 31.3371 11.0481 32.0312 11.5072L33.8935 9.80211C33.2265 8.85119 32.3059 7.97777 31.1288 7.66776C30.7666 9.00918 30.329 8.35039 29.9336 10.0316H29.9366Z" fill="white"/>
<path fill-rule="evenodd" clip-rule="evenodd" d="M10.1842 9.7381L11.9106 11.5773C12.8734 10.9185 13.465 10.6383 14.0746 9.7381C13.6521 8.94815 13.2869 8.18204 12.5776 7.6723C12.1188 7.97636 11.82 8.2208 11.3703 8.5487C10.6882 9.05248 10.661 9.03459 10.1812 9.7381H10.1842Z" fill="white"/>
<path fill-rule="evenodd" clip-rule="evenodd" d="M13.4639 12.9856C15.0514 15.3286 14.97 13.6742 16.4549 13.2807C16.2316 12.452 15.8603 11.9452 15.2567 11.507C14.1822 12.0704 14.149 11.9751 13.4639 12.9856Z" fill="white"/>
<path fill-rule="evenodd" clip-rule="evenodd" d="M11.0684 16.5238L13.1479 17.1558C13.6731 14.9708 14.6389 15.7309 12.2666 14.1599C11.8139 15.0065 11.3189 15.4775 11.0684 16.5238Z" fill="white"/>
<path fill-rule="evenodd" clip-rule="evenodd" d="M16.7578 31.882C17.7267 32.1056 18.0707 32.3858 19.1512 32.4722C19.3565 31.6048 19.4501 31.569 19.4501 30.4064C18.4359 30.323 18.3544 30.1799 17.6572 29.8162C17.283 30.5167 16.9661 31.0175 16.7608 31.882H16.7578Z" fill="white"/>
<path fill-rule="evenodd" clip-rule="evenodd" d="M24.543 30.4064C24.5732 31.7031 24.7452 31.3245 24.8418 32.4722C25.9253 32.3828 26.2694 32.1026 27.2352 31.882C27.033 31.0205 26.7131 30.5137 26.3388 29.8162C25.6416 30.1828 25.5601 30.323 24.546 30.4064H24.543Z" fill="white"/>
<path fill-rule="evenodd" clip-rule="evenodd" d="M16.7608 10.3257C16.9631 11.1872 17.286 11.694 17.6572 12.3915C18.3575 12.0248 18.4359 11.8847 19.4501 11.8013C19.4501 10.6357 19.3535 10.6029 19.1512 9.73547C17.7116 9.85471 18.2035 10.2094 16.7578 10.3257H16.7608Z" fill="white"/>
<path fill-rule="evenodd" clip-rule="evenodd" d="M30.2324 26.5644C30.2324 27.3753 30.4135 27.1725 31.7295 28.04C32.2365 27.2948 32.6832 26.7075 32.9277 25.6791C31.9136 25.5956 31.8321 25.4525 31.1318 25.0889C31.0624 25.22 30.2354 26.5615 30.2354 26.5644H30.2324Z" fill="white"/>
<path fill-rule="evenodd" clip-rule="evenodd" d="M11.0684 25.9742C11.5211 26.8178 11.7384 27.2679 12.2666 28.04C14.651 26.4631 13.667 27.2113 13.163 25.0889C12.2877 25.2886 11.7776 25.6046 11.0684 25.9742Z" fill="white"/>
<path fill-rule="evenodd" clip-rule="evenodd" d="M30.2354 15.0483C30.3592 16.5268 30.1811 15.4209 30.5825 16.181C30.6821 16.3688 31.0051 16.8696 31.1349 17.1111C31.7295 16.8279 32.2063 16.6878 32.9307 16.5208C32.6862 15.4894 32.2395 14.9022 31.7325 14.1599C30.8602 14.7353 31.328 14.7591 30.2324 15.0483H30.2354Z" fill="white"/>
<path fill-rule="evenodd" clip-rule="evenodd" d="M10.1812 22.7295C10.1812 23.5254 10.323 23.5433 10.48 24.2051C11.7929 24.1753 11.4126 24.0054 12.5746 23.91C12.14 23.1498 12.2758 23.117 12.2758 21.8442H10.1812V22.7295Z" fill="white"/>
<path fill-rule="evenodd" clip-rule="evenodd" d="M20.9634 10.3244V11.5078H23.0581C23.0883 10.2111 23.2603 10.5897 23.3569 9.44205H20.6616C20.8699 9.80274 20.9634 9.75505 20.9634 10.3274V10.3244Z" fill="white"/>
<path fill-rule="evenodd" clip-rule="evenodd" d="M27.8257 12.6875C27.8257 12.765 28.6406 15.7489 30.5209 12.9826C29.9052 12.0704 29.6728 11.7932 28.4263 11.507C28.1516 12.5265 27.8287 12.2881 27.8287 12.6905L27.8257 12.6875Z" fill="white"/>
<path fill-rule="evenodd" clip-rule="evenodd" d="M13.4634 29.2234C14.1485 30.234 14.1847 30.1386 15.2562 30.699C15.887 30.2429 16.0198 29.8613 16.4544 29.2234L15.0117 27.9863C14.3115 28.4692 13.9252 28.6004 13.4634 29.2234Z" fill="white"/>
<path fill-rule="evenodd" clip-rule="evenodd" d="M10.1812 19.4793V20.3646H12.2758V18.2988C11.5725 18.1349 11.3945 18.0246 10.48 18.0037C10.323 18.6655 10.1812 18.6833 10.1812 19.4793Z" fill="white"/>
<path fill-rule="evenodd" clip-rule="evenodd" d="M20.6621 32.7639H23.3574C23.2608 31.6163 23.0887 31.9948 23.0586 30.6981C21.2386 31.1751 22.6692 31.0886 20.9639 30.6981C20.9639 31.9412 21.0877 31.8905 20.6621 32.7639Z" fill="white"/>
<path fill-rule="evenodd" clip-rule="evenodd" d="M23.6333 27.7451C23.7933 28.4188 23.8657 28.4247 23.9321 29.2206C24.6595 29.0537 25.1333 28.9136 25.7279 28.6304C25.4744 28.1117 25.3839 27.6735 25.1303 27.1548C24.5086 27.4798 24.4271 27.5573 23.6333 27.7451Z" fill="white"/>
<path fill-rule="evenodd" clip-rule="evenodd" d="M27.8257 17.1173C27.8257 17.794 27.9283 17.4601 28.1245 18.3008C28.9303 18.2352 28.9364 18.1636 29.6215 18.0057C29.4948 16.4943 29.3921 17.6062 29.0239 16.232C28.6466 16.4287 27.8287 16.6374 27.8287 17.1173H27.8257Z" fill="white"/>
<path fill-rule="evenodd" clip-rule="evenodd" d="M23.6333 14.461C24.1585 14.7114 24.6021 14.8009 25.1303 15.0513C25.3839 14.5326 25.4744 14.0944 25.7279 13.5757C25.0005 13.4088 24.5267 13.2687 23.9321 12.9855C23.8657 13.7814 23.7963 13.7903 23.6333 14.461Z" fill="white"/>
<path fill-rule="evenodd" clip-rule="evenodd" d="M14.3652 20.6615C15.0534 20.6615 15.2616 20.4558 15.2616 19.7762C15.2616 18.7954 14.7244 18.9117 13.7646 18.8908C13.7344 20.1279 13.1609 20.6615 14.3622 20.6615H14.3652Z" fill="white"/>
<path fill-rule="evenodd" clip-rule="evenodd" d="M13.7627 23.3177C14.7195 23.2968 15.2597 23.416 15.2597 22.4323C15.2597 21.7527 15.0515 21.547 14.3633 21.547C13.1591 21.547 13.7355 22.0776 13.7657 23.3177H13.7627Z" fill="white"/>
<path fill-rule="evenodd" clip-rule="evenodd" d="M27.8287 24.7949C27.8287 25.5848 28.2603 25.6683 28.7251 25.9783C29.4465 25.4596 29.5249 25.3881 29.6215 24.2076C28.6949 24.1301 29.0541 24.2076 28.4233 23.9125C28.2573 24.148 27.8257 24.6369 27.8257 24.7949H27.8287Z" fill="white"/>
<path fill-rule="evenodd" clip-rule="evenodd" d="M18.2314 13.5757C18.5574 14.1838 18.6449 14.2762 18.829 15.0513C19.3542 14.8009 19.7979 14.7114 20.3261 14.461C20.1661 13.7873 20.0937 13.7814 20.0273 12.9855C19.4327 13.2657 18.9558 13.4088 18.2314 13.5757Z" fill="white"/>
<path fill-rule="evenodd" clip-rule="evenodd" d="M14.3618 18.0027C15.1677 18.0683 15.1737 18.1428 15.8588 18.2978C16.0822 17.3797 16.7673 16.7089 14.9624 16.232C14.7451 17.1471 14.5791 17.0875 14.3648 18.0057L14.3618 18.0027Z" fill="white"/>
<path fill-rule="evenodd" clip-rule="evenodd" d="M26.04 26.5642C26.2211 27.3422 26.3117 27.4316 26.6376 28.0397L28.2041 26.6297C27.5371 26.1319 27.1477 25.497 26.04 26.5642Z" fill="white"/>
<path fill-rule="evenodd" clip-rule="evenodd" d="M18.2314 28.633C19.1611 28.8476 19.1007 29.0086 20.0273 29.2232C20.1872 28.5495 20.2597 28.5436 20.3261 27.7477C18.8532 27.3989 19.0675 26.9667 18.2314 28.633Z" fill="white"/>
<path fill-rule="evenodd" clip-rule="evenodd" d="M26.0431 15.6459C27.3228 16.5223 26.9364 16.4388 28.1377 15.6459L26.7071 14.1018C26.3147 14.7785 26.2272 14.8709 26.04 15.6459H26.0431Z" fill="white"/>
<path fill-rule="evenodd" clip-rule="evenodd" d="M21.2261 14.1672C22.4002 14.1941 21.9293 14.0868 22.7231 14.4624C22.7533 13.2223 23.3298 12.6887 22.1255 12.6887H21.2291V14.1672H21.2261Z" fill="white"/>
<path fill-rule="evenodd" clip-rule="evenodd" d="M21.2291 29.5177H22.1255C23.2966 29.5177 22.8046 29.0079 22.7231 28.0421H21.2261V29.5177H21.2291Z" fill="white"/>
<path fill-rule="evenodd" clip-rule="evenodd" d="M16.1128 26.796L17.308 28.1077C17.5434 27.8036 17.972 27.3147 17.972 27.1567C17.972 26.3668 17.5404 26.2833 17.0756 25.9733L16.1128 26.796Z" fill="white"/>
<path fill-rule="evenodd" clip-rule="evenodd" d="M16.1729 15.3456L17.006 16.2936L18.0322 15.4082C17.7424 14.9462 17.8028 15.0207 17.667 14.4603C16.5864 14.5497 16.5864 14.5885 16.1699 15.3456H16.1729Z" fill="white"/>
<path fill-rule="evenodd" clip-rule="evenodd" d="M21.2261 26.5686C22.0229 26.9442 21.546 26.8369 22.7231 26.8638C22.6627 26.1424 22.7563 25.7847 22.0953 25.7101C21.2351 25.6118 21.5792 26.1006 21.2261 26.5686Z" fill="white"/>
<path fill-rule="evenodd" clip-rule="evenodd" d="M17.3561 24.499L18.3159 23.6762C17.6669 23.2261 17.513 22.7253 16.9848 23.247C16.4566 23.7686 16.9637 23.9207 17.3561 24.496V24.499Z" fill="white"/>
<path fill-rule="evenodd" clip-rule="evenodd" d="M16.1699 20.6601L17.3561 20.991C17.341 19.7956 17.4496 20.2637 17.0693 19.4767C16.2092 19.7807 16.4808 19.4588 16.1699 20.6601Z" fill="white"/>
<path fill-rule="evenodd" clip-rule="evenodd" d="M21.2266 15.6417C21.7366 16.5896 21.7849 17.2007 22.7236 15.9368C22.5727 15.6745 22.5304 15.3466 22.126 15.3466C21.7759 15.3466 21.299 15.5582 21.2296 15.6447L21.2266 15.6417Z" fill="white"/>
<path fill-rule="evenodd" clip-rule="evenodd" d="M23.0342 25.6798C23.5443 26.6277 23.5925 27.2388 24.5312 25.9749C24.3803 25.7125 24.338 25.3846 23.9336 25.3846C23.5865 25.3846 23.1096 25.5963 23.0372 25.6827L23.0342 25.6798Z" fill="white"/>
<path fill-rule="evenodd" clip-rule="evenodd" d="M17.9438 17.1207C18.6652 18.3876 19.2236 17.5231 19.4409 17.4158C18.46 15.5885 17.9529 17.0611 17.9438 17.1207Z" fill="white"/>
<path fill-rule="evenodd" clip-rule="evenodd" d="M23.0372 16.5274C23.0372 16.5274 23.5956 16.8226 23.6348 16.8226C24.4769 16.8226 24.1871 16.6944 24.5312 16.2323C23.4537 14.7806 23.5624 15.8299 23.0342 16.5304L23.0372 16.5274Z" fill="white"/>
<path fill-rule="evenodd" clip-rule="evenodd" d="M17.9438 25.0871C18.8825 26.351 18.9308 25.7399 19.4409 24.792C18.7889 24.64 18.0978 24.2047 17.9438 25.0871Z" fill="white"/>
<path fill-rule="evenodd" clip-rule="evenodd" d="M19.4639 15.9342C19.9739 16.8821 20.0222 17.4932 20.9609 16.2293C20.484 15.5884 20.3512 15.5944 19.4639 15.9342Z" fill="white"/>
<path fill-rule="evenodd" clip-rule="evenodd" d="M16.5167 22.716C17.5579 22.4418 17.2803 22.7011 17.3799 21.5445H16.1816L16.5167 22.716Z" fill="white"/>
<path d="M25.4801 24.4464L24.7617 25.0366L25.3593 25.7461L26.0777 25.1559L25.4801 24.4464Z" fill="white"/>
<path d="M25.4801 24.4464L24.7617 25.0366L25.3593 25.7461L26.0777 25.1559L25.4801 24.4464Z" stroke="white" stroke-width="0.19" stroke-miterlimit="22.93"/>
<path d="M25.4801 16.468L24.7617 17.0582L25.3593 17.7677L26.0777 17.1775L25.4801 16.468Z" fill="white"/>
<path d="M52.4652 20.6618C52.4652 21.6013 52.3467 22.4583 52.1097 23.2291C51.8728 24 51.5139 24.6642 51.033 25.2217C50.5522 25.7792 49.9389 26.206 49.2037 26.5019C48.465 26.8013 47.5904 26.9493 46.5834 26.9493C45.5764 26.9493 44.7018 26.8013 43.9631 26.5019C43.2244 26.206 42.6146 25.7758 42.1338 25.2217C41.6529 24.6642 41.294 24 41.0571 23.2257C40.8201 22.4514 40.7017 21.591 40.7017 20.6446C40.7017 19.3816 40.9107 18.2804 41.3323 17.3408C41.7505 16.4013 42.3986 15.6752 43.2732 15.1555C44.1478 14.6393 45.2558 14.3778 46.6043 14.3778C47.9528 14.3778 49.0504 14.6359 49.9145 15.1555C50.7787 15.6752 51.4233 16.4013 51.8414 17.3443C52.2596 18.2872 52.4721 19.3919 52.4721 20.6584L52.4652 20.6618ZM43.4439 20.6618C43.4439 21.5153 43.5519 22.2483 43.768 22.8609C43.984 23.4769 44.3255 23.9484 44.7854 24.2788C45.2489 24.6091 45.8447 24.7743 46.5764 24.7743C47.3082 24.7743 47.9249 24.6091 48.3849 24.2788C48.8448 23.9484 49.1828 23.4735 49.3954 22.8609C49.6079 22.2449 49.7124 21.5119 49.7124 20.6618C49.7124 19.3816 49.4685 18.3733 48.9842 17.6403C48.4998 16.9038 47.7019 16.539 46.5904 16.539C45.8517 16.539 45.2489 16.7042 44.7854 17.0346C44.322 17.3649 43.9805 17.8399 43.761 18.4524C43.545 19.0684 43.4369 19.8049 43.4369 20.6618H43.4439Z" fill="white"/>
<path d="M60.0636 17.2704C61.1299 17.2704 61.9905 17.6799 62.6456 18.499C63.3007 19.3181 63.6317 20.5157 63.6317 22.0987C63.6317 23.1552 63.4749 24.0466 63.1683 24.7658C62.8582 25.4885 62.4296 26.0323 61.8825 26.3971C61.3355 26.7653 60.7083 26.9477 59.9974 26.9477C59.541 26.9477 59.1507 26.8892 58.8232 26.7756C58.4956 26.6621 58.2169 26.5141 57.9869 26.3317C57.7569 26.1493 57.5548 25.9566 57.3876 25.7501H57.2517C57.297 25.9738 57.3318 26.2009 57.3527 26.4349C57.3736 26.6689 57.3876 26.8961 57.3876 27.1198V30.8847H54.8091V17.439H56.9067L57.2691 18.6504H57.3876C57.5583 18.3992 57.7639 18.1686 58.0043 17.9587C58.2482 17.7488 58.5374 17.5801 58.8789 17.4528C59.2204 17.3255 59.6141 17.2635 60.0671 17.2635L60.0636 17.2704ZM59.2343 19.3077C58.7848 19.3077 58.4259 19.4006 58.1611 19.583C57.8963 19.7689 57.7047 20.0408 57.5827 20.409C57.4607 20.7772 57.3945 21.2418 57.3841 21.8028V22.0781C57.3841 22.6803 57.4433 23.1897 57.5583 23.6061C57.6733 24.0225 57.8684 24.3391 58.1402 24.5594C58.412 24.7762 58.7883 24.8863 59.2692 24.8863C59.6629 24.8863 59.987 24.7762 60.2413 24.5594C60.4957 24.3425 60.6839 24.0225 60.8128 23.6026C60.9382 23.1828 61.0044 22.6666 61.0044 22.0609C61.0044 21.1489 60.8616 20.4606 60.5724 19.9995C60.2832 19.5383 59.8406 19.3077 59.2378 19.3077H59.2343Z" fill="white"/>
<path d="M69.7588 24.9202C70.041 24.9202 70.3163 24.8926 70.5846 24.8376C70.8529 24.7825 71.1177 24.7137 71.3825 24.6276V26.5239C71.1072 26.6478 70.7623 26.7476 70.3546 26.8302C69.9469 26.9093 69.4974 26.9506 69.0131 26.9506C68.4486 26.9506 67.9434 26.8611 67.4939 26.6787C67.0444 26.4963 66.6924 26.1832 66.4381 25.7358C66.1837 25.2884 66.0548 24.6621 66.0548 23.8602V19.3588H64.8213V18.2817L66.2429 17.4282L66.9886 15.4562H68.6368V17.4454H71.2849V19.3588H68.6368V23.8602C68.6368 24.2181 68.7378 24.4831 68.9469 24.6586C69.1559 24.8341 69.4242 24.9236 69.7622 24.9236L69.7588 24.9202Z" fill="white"/>
<path d="M74.602 13.7867C74.9853 13.7867 75.3163 13.8727 75.5916 14.0482C75.8703 14.2237 76.0062 14.5507 76.0062 15.029C76.0062 15.5074 75.8668 15.8274 75.5916 16.0098C75.3163 16.1922 74.9853 16.2817 74.602 16.2817C74.2187 16.2817 73.8807 16.1922 73.6089 16.0098C73.3371 15.8309 73.1978 15.504 73.1978 15.029C73.1978 14.5541 73.3336 14.2237 73.6089 14.0482C73.8807 13.8727 74.2152 13.7867 74.602 13.7867ZM75.8877 17.4449V26.7815H73.3093V17.4449H75.8877Z" fill="white"/>
<path d="M89.681 17.2704C90.7507 17.2704 91.5626 17.5423 92.1131 18.086C92.6637 18.6298 92.9354 19.497 92.9354 20.6946V26.7825H90.3465V21.3278C90.3465 20.6602 90.2315 20.1543 90.0015 19.8171C89.7716 19.4764 89.4127 19.3077 88.9283 19.3077C88.2454 19.3077 87.761 19.5486 87.4753 20.0304C87.1861 20.5122 87.0433 21.2005 87.0433 22.0987V26.7825H84.4648V21.3278C84.4648 20.8839 84.4125 20.5088 84.3114 20.2094C84.2104 19.91 84.0571 19.6828 83.848 19.5314C83.6389 19.38 83.3706 19.3043 83.0466 19.3043C82.5657 19.3043 82.1894 19.4247 81.9176 19.6588C81.6424 19.8962 81.4507 20.2438 81.3357 20.7015C81.2207 21.1592 81.1615 21.7202 81.1615 22.3844V26.7756H78.583V17.439H80.5517L80.9002 18.6332H81.043C81.2347 18.3097 81.4751 18.0482 81.7678 17.8486C82.057 17.649 82.3776 17.501 82.726 17.4046C83.0745 17.3083 83.4299 17.2635 83.7923 17.2635C84.4857 17.2635 85.0745 17.3736 85.5554 17.5973C86.0362 17.821 86.4091 18.1652 86.6669 18.6332H86.8934C87.1757 18.1549 87.5729 17.8073 88.0886 17.5905C88.6043 17.3736 89.1374 17.267 89.681 17.267V17.2704Z" fill="white"/>
<path d="M104.248 17.4457V26.7823H102.268L101.92 25.5881H101.784C101.582 25.9047 101.328 26.1663 101.024 26.3659C100.721 26.5655 100.383 26.7135 100.017 26.8098C99.6515 26.9062 99.2717 26.9509 98.878 26.9509C98.202 26.9509 97.6131 26.8339 97.1114 26.5965C96.6096 26.359 96.2194 25.9908 95.9406 25.4883C95.6618 24.9859 95.5225 24.3355 95.5225 23.5336V17.4457H98.101V22.9004C98.101 23.568 98.2229 24.0739 98.4633 24.4112C98.7038 24.7519 99.0905 24.9205 99.6237 24.9205C100.157 24.9205 100.561 24.8 100.857 24.566C101.157 24.3286 101.366 23.981 101.488 23.5233C101.61 23.0656 101.669 22.5046 101.669 21.8404V17.4492H104.248V17.4457Z" fill="white"/>
<path d="M113.567 24.0085C113.567 24.6452 113.417 25.1786 113.114 25.6157C112.815 26.0528 112.365 26.3831 111.766 26.6103C111.17 26.834 110.424 26.9475 109.532 26.9475C108.874 26.9475 108.309 26.9062 107.835 26.8236C107.361 26.741 106.891 26.5999 106.41 26.4072V24.3011C106.922 24.5282 107.473 24.7175 108.062 24.8655C108.651 25.0134 109.166 25.0857 109.612 25.0857C110.114 25.0857 110.473 25.0134 110.689 24.8655C110.905 24.7175 111.013 24.5248 111.013 24.2839C111.013 24.129 110.968 23.9879 110.881 23.8606C110.794 23.7332 110.605 23.5921 110.32 23.4338C110.03 23.2755 109.581 23.069 108.968 22.8109C108.375 22.5666 107.891 22.3188 107.508 22.0676C107.128 21.8164 106.846 21.5204 106.661 21.1797C106.48 20.8355 106.386 20.4019 106.386 19.8719C106.386 19.0081 106.724 18.3577 107.403 17.9207C108.083 17.4836 108.992 17.2668 110.132 17.2668C110.717 17.2668 111.278 17.3253 111.811 17.4423C112.344 17.5593 112.891 17.7451 113.456 18.0033L112.679 19.841C112.212 19.6414 111.769 19.4762 111.355 19.3488C110.94 19.2215 110.518 19.1561 110.09 19.1561C109.713 19.1561 109.428 19.2078 109.236 19.3076C109.044 19.4074 108.95 19.5622 108.95 19.7687C108.95 19.9201 108.999 20.0509 109.097 20.1679C109.194 20.2849 109.386 20.4157 109.672 20.5568C109.957 20.6979 110.375 20.8803 110.926 21.104C111.463 21.3208 111.926 21.5479 112.323 21.7854C112.717 22.0228 113.02 22.3154 113.236 22.6629C113.449 23.0105 113.557 23.4614 113.557 24.012L113.567 24.0085Z" fill="white"/>
<path d="M124.129 19.601L126.707 14.5731H129.53L125.429 22.0307V26.7833H122.826V22.1167L118.725 14.5765H121.564L124.126 19.6045L124.129 19.601Z" fill="white"/>
<path d="M134.741 17.2521C136.009 17.2521 136.982 17.524 137.658 18.0712C138.334 18.6149 138.672 19.4478 138.672 20.5594V26.7815H136.87L136.372 25.5116H136.306C136.034 25.8454 135.759 26.1173 135.476 26.3306C135.194 26.544 134.87 26.6989 134.504 26.7987C134.138 26.8985 133.692 26.9501 133.166 26.9501C132.609 26.9501 132.107 26.8434 131.664 26.6335C131.222 26.4201 130.873 26.0966 130.619 25.6595C130.365 25.2225 130.239 24.6684 130.239 23.9939C130.239 23.0028 130.591 22.2732 131.295 21.8017C131.999 21.3302 133.058 21.0721 134.466 21.0205L136.107 20.9689V20.5594C136.107 20.0707 135.978 19.7093 135.717 19.4822C135.459 19.255 135.097 19.138 134.633 19.138C134.17 19.138 133.727 19.2034 133.288 19.3308C132.849 19.4581 132.41 19.6198 131.968 19.816L131.114 18.0953C131.616 17.8337 132.177 17.6273 132.8 17.4758C133.424 17.3244 134.069 17.2521 134.731 17.2521H134.741ZM136.111 22.4556L135.114 22.49C134.281 22.5106 133.699 22.6586 133.375 22.9339C133.051 23.2093 132.887 23.5672 132.887 24.0111C132.887 24.4 133.002 24.6787 133.236 24.8405C133.466 25.0057 133.769 25.0883 134.142 25.0883C134.692 25.0883 135.159 24.9265 135.543 24.603C135.926 24.2795 136.114 23.8218 136.114 23.2265V22.459L136.111 22.4556Z" fill="white"/>
<path d="M147.918 26.7823H140.451V25.2784L144.831 19.3901H140.713V17.4457H147.765V19.0976L143.504 24.8345H147.918V26.7789V26.7823Z" fill="white"/>
<path d="M152.377 26.7823H149.798V17.4457H152.377V26.7823Z" fill="white"/>
<path d="M157.642 26.7815H155.063V13.7867H157.642V26.7815Z" fill="white"/>
<path d="M162.948 26.7823H160.369V17.4457H162.948V26.7823Z" fill="white"/>
<path d="M176.745 17.2704C177.815 17.2704 178.627 17.5423 179.178 18.086C179.728 18.6298 180 19.497 180 20.6946V26.7825H177.411V21.3278C177.411 20.6602 177.296 20.1543 177.066 19.8171C176.836 19.4764 176.477 19.3077 175.993 19.3077C175.31 19.3077 174.825 19.5486 174.54 20.0304C174.251 20.5122 174.108 21.2005 174.108 22.0987V26.7825H171.529V21.3278C171.529 20.8839 171.477 20.5088 171.376 20.2094C171.275 19.91 171.122 19.6828 170.912 19.5314C170.703 19.38 170.435 19.3043 170.111 19.3043C169.63 19.3043 169.254 19.4247 168.982 19.6588C168.707 19.8962 168.515 20.2438 168.4 20.7015C168.285 21.1592 168.226 21.7202 168.226 22.3844V26.7756H165.647V17.439H167.616L167.965 18.6332H168.107C168.299 18.3097 168.54 18.0482 168.832 17.8486C169.121 17.649 169.442 17.501 169.79 17.4046C170.139 17.3083 170.494 17.2635 170.857 17.2635C171.55 17.2635 172.139 17.3736 172.62 17.5973C173.101 17.821 173.474 18.1652 173.731 18.6332H173.958C174.24 18.1549 174.637 17.8073 175.153 17.5905C175.669 17.3736 176.202 17.267 176.745 17.267V17.2704Z" fill="white"/>
</svg>
