<svg width="244" height="67" viewBox="0 0 244 67" fill="none" xmlns="http://www.w3.org/2000/svg">
<path fill-rule="evenodd" clip-rule="evenodd" d="M2.41113 20.9931C3.9746 21.8192 5.28694 22.5481 7.23114 22.9976C7.7091 20.9486 9.09029 19.9767 9.24016 18.1828C7.69694 17.7698 6.74914 16.5792 5.22618 15.7774L2.41518 20.989L2.41113 20.9931Z" fill="#293A89"/>
<path fill-rule="evenodd" clip-rule="evenodd" d="M35.723 57.0899C36.0997 58.7056 36.5493 60.2849 36.926 61.9047C39.3036 61.7062 40.462 60.787 42.548 60.3011C42.4103 58.6732 41.2073 56.7538 40.539 55.4863C39.3806 56.0978 37.3311 56.9603 35.719 57.0899H35.723Z" fill="#293A89"/>
<path fill-rule="evenodd" clip-rule="evenodd" d="M16.8512 60.3005C19.0344 60.8066 20.0673 61.8514 22.4732 61.9081C22.7527 60.7135 23.2225 58.4458 23.6762 57.4942C22.0641 56.7208 20.525 56.3685 18.8562 55.4897C18.1879 56.7491 16.9849 58.6685 16.8472 60.3045L16.8512 60.3005Z" fill="#293A89"/>
<path fill-rule="evenodd" clip-rule="evenodd" d="M16.8472 6.1513C16.9849 7.77917 18.1879 9.6986 18.8562 10.9661C20.5209 10.0873 22.0641 9.73099 23.6762 8.9616C23.2225 8.01404 22.7486 5.74231 22.4732 4.54773C20.0673 4.60037 19.0344 5.64512 16.8512 6.15535L16.8472 6.1513Z" fill="#293A89"/>
<path fill-rule="evenodd" clip-rule="evenodd" d="M2.41518 45.4573L5.22618 50.6689C6.74914 49.8671 7.70099 48.6725 9.24016 48.2636C9.09434 46.4697 7.7091 45.4978 7.23114 43.4488C5.29504 43.9023 3.97865 44.6272 2.41113 45.4533L2.41518 45.4573Z" fill="#293A89"/>
<path fill-rule="evenodd" clip-rule="evenodd" d="M43.7407 12.5695C44.4252 13.5008 46.7097 15.076 47.7547 15.7766L51.0639 12.6626C50.1931 11.4113 48.022 9.35016 46.5517 8.95737C45.3285 9.7713 44.5832 11.306 43.7407 12.5695Z" fill="#293A89"/>
<path fill-rule="evenodd" clip-rule="evenodd" d="M0 31.0167C2.01306 31.0167 2.47481 31.4176 4.82001 31.4176C4.86051 29.6318 5.48428 27.8946 5.62199 26.206C3.67779 26.044 3.10668 25.4042 0.801985 25.4042C0.336186 27.4006 0 28.4899 0 31.0208L0 31.0167Z" fill="#293A89"/>
<path fill-rule="evenodd" clip-rule="evenodd" d="M43.7407 53.8805C44.2713 54.6742 45.8956 57.0107 46.5517 57.4926C48.022 57.0998 50.1931 55.0427 50.9707 53.8805L47.8519 50.5762C46.7056 51.3739 44.4212 52.9491 43.7407 53.8805Z" fill="#293A89"/>
<path fill-rule="evenodd" clip-rule="evenodd" d="M27.3305 12.1632C27.3305 13.5481 27.6261 13.7141 27.7315 14.9694C29.5906 14.9694 31.7454 15.5445 31.7454 13.7668V10.9605H27.3264V12.1632H27.3305Z" fill="#3F5BA6"/>
<path fill-rule="evenodd" clip-rule="evenodd" d="M27.3264 54.2794V55.4824H31.7454C31.7454 49.6497 32.3692 52.5499 27.7315 51.4724C27.6261 52.7281 27.3264 52.9022 27.3264 54.2794Z" fill="#3F5BA6"/>
<path fill-rule="evenodd" clip-rule="evenodd" d="M8.05611 39.4442C9.15783 38.9178 10.458 38.8206 11.6731 38.2415L11.2722 34.6295C5.33017 34.6295 7.67132 34.836 8.05611 39.4442Z" fill="#3F5BA6"/>
<path fill-rule="evenodd" clip-rule="evenodd" d="M8.45694 31.8213H11.2679L11.6689 28.2092C10.794 27.7921 9.36018 27.4357 8.05189 27.4074C7.53344 29.6224 6.49653 31.8213 8.45694 31.8213Z" fill="#3F5BA6"/>
<path fill-rule="evenodd" clip-rule="evenodd" d="M44.6062 22.1994C45.2745 23.4587 45.9185 24.4994 46.6152 25.8114L49.8232 24.1957C49.4222 22.4707 48.5837 21.6405 47.8222 20.1989C46.7043 20.9481 45.8497 21.5474 44.6062 22.2034V22.1994Z" fill="#3F5BA6"/>
<path fill-rule="evenodd" clip-rule="evenodd" d="M20.0928 12.9659C20.2507 14.9015 20.8867 14.8165 21.2958 16.578C22.6607 16.2581 23.3615 15.7357 24.9128 15.3753C24.7872 9.77092 22.9848 12.2978 20.0928 12.9659Z" fill="#3F5BA6"/>
<path fill-rule="evenodd" clip-rule="evenodd" d="M44.6062 44.2571C46.0076 44.9982 46.4167 45.5206 47.8182 46.2616C48.5837 44.82 49.4222 43.9939 49.8272 42.2527C48.6566 41.6372 48.0005 41.0905 46.2102 41.05C45.8821 42.4673 45.2178 43.1152 44.6062 44.2571Z" fill="#3F5BA6"/>
<path fill-rule="evenodd" clip-rule="evenodd" d="M34.1423 15.3722C35.6896 15.7326 36.3944 16.259 37.7594 16.5749C38.3386 15.4816 38.8327 14.5218 38.9623 12.9628C37.3503 12.5862 36.9047 11.9221 34.9484 11.7601C34.6689 12.9628 34.2557 14.044 34.1464 15.3722H34.1423Z" fill="#3F5BA6"/>
<path fill-rule="evenodd" clip-rule="evenodd" d="M20.0968 53.4831C21.7089 53.8597 22.1544 54.5238 24.1108 54.6858C24.532 53.8152 24.8844 52.3776 24.9128 51.0737C23.3615 50.7133 22.6607 50.1869 21.2957 49.871C20.8826 51.6325 20.2507 51.5475 20.0928 53.4831H20.0968Z" fill="#3F5BA6"/>
<path fill-rule="evenodd" clip-rule="evenodd" d="M34.1464 51.0737C34.2557 52.4019 34.6689 53.4791 34.9484 54.6858C36.9047 54.5238 37.3503 53.8557 38.9623 53.4831C38.9218 51.6933 38.375 51.0413 37.7594 49.871C36.8035 50.3286 35.2967 50.8065 34.1423 51.0737H34.1464Z" fill="#3F5BA6"/>
<path fill-rule="evenodd" clip-rule="evenodd" d="M9.22705 24.204C10.3976 24.8195 11.0538 25.3662 12.8441 25.4066C13.1033 24.4348 13.9539 23.1309 14.4521 22.1995C13.0507 21.4585 12.6416 20.9361 11.2401 20.195C10.746 22.0335 9.71715 22.1226 9.22705 24.204Z" fill="#3F5BA6"/>
<path fill-rule="evenodd" clip-rule="evenodd" d="M13.5703 48.5692C14.4655 49.8609 15.7008 51.0474 17.2805 51.4685C17.8435 50.4076 18.3215 49.7232 18.8885 48.6623C18.0703 47.4394 17.2765 47.0587 16.0775 46.2569L13.5744 48.5692H13.5703Z" fill="#3F5BA6"/>
<path fill-rule="evenodd" clip-rule="evenodd" d="M9.22705 42.2485L11.2361 46.2574C12.6375 45.5164 13.0466 44.994 14.4481 44.253C13.9539 43.3216 13.0993 42.0177 12.84 41.0458C11.2887 41.1754 10.3247 41.6694 9.22705 42.2485Z" fill="#3F5BA6"/>
<path fill-rule="evenodd" clip-rule="evenodd" d="M40.1704 48.2623C40.701 50.5421 41.2883 49.6512 41.7784 51.4694C43.354 51.0523 44.5894 49.8577 45.3955 48.6632L43.0786 46.1647C42.0539 46.8814 41.1628 47.5982 40.1745 48.2623H40.1704Z" fill="#3F5BA6"/>
<path fill-rule="evenodd" clip-rule="evenodd" d="M40.1745 18.1837C41.1668 18.8478 42.0539 19.5645 42.9855 20.1881L45.4846 17.8719C44.5894 16.5801 43.354 15.3936 41.7744 14.9725C41.2883 16.7947 40.701 15.8998 40.1704 18.1837H40.1745Z" fill="#3F5BA6"/>
<path fill-rule="evenodd" clip-rule="evenodd" d="M13.6674 17.7848L15.9842 20.2833C17.2763 19.3884 18.0702 19.0078 18.8884 17.7848C18.3213 16.7117 17.8312 15.671 16.8794 14.9786C16.2637 15.3916 15.8627 15.7237 15.2592 16.1691C14.3438 16.8535 14.3073 16.8292 13.6633 17.7848H13.6674Z" fill="#3F5BA6"/>
<path fill-rule="evenodd" clip-rule="evenodd" d="M18.0681 22.1962C20.1986 25.3799 20.0893 23.1319 22.0821 22.5972C21.7824 21.4712 21.2842 20.7826 20.4741 20.1872C19.0321 20.9528 18.9876 20.8231 18.0681 22.1962Z" fill="#7A96CD"/>
<path fill-rule="evenodd" clip-rule="evenodd" d="M14.8533 27.0028L17.644 27.8612C18.3488 24.893 19.6449 25.9256 16.4613 23.7916C15.8537 24.9416 15.1895 25.5814 14.8533 27.0028Z" fill="#7A96CD"/>
<path fill-rule="evenodd" clip-rule="evenodd" d="M22.4885 47.8664C23.7887 48.1702 24.2505 48.5509 25.7005 48.6684C25.9759 47.4897 26.1015 47.4411 26.1015 45.8615C24.7406 45.7481 24.6312 45.5536 23.6956 45.0595C23.1933 46.0113 22.768 46.6918 22.4926 47.8664H22.4885Z" fill="#7A96CD"/>
<path fill-rule="evenodd" clip-rule="evenodd" d="M32.937 45.8615C32.9775 47.6234 33.2084 47.109 33.338 48.6684C34.7921 48.5469 35.2539 48.1662 36.55 47.8664C36.2786 46.6959 35.8493 46.0073 35.347 45.0595C34.4114 45.5577 34.302 45.7481 32.9411 45.8615H32.937Z" fill="#7A96CD"/>
<path fill-rule="evenodd" clip-rule="evenodd" d="M22.4926 18.5828C22.764 19.7534 23.1974 20.442 23.6956 21.3898C24.6353 20.8916 24.7406 20.7012 26.1015 20.5878C26.1015 19.0041 25.9719 18.9595 25.7005 17.7809C23.7685 17.9429 24.4287 18.4249 22.4885 18.5828H22.4926Z" fill="#7A96CD"/>
<path fill-rule="evenodd" clip-rule="evenodd" d="M40.5723 40.6424C40.5723 41.7442 40.8153 41.4687 42.5813 42.6474C43.2618 41.6348 43.8612 40.8369 44.1893 39.4395C42.8284 39.3261 42.719 39.1316 41.7793 38.6375C41.6861 38.8157 40.5763 40.6384 40.5763 40.6424H40.5723Z" fill="#7A96CD"/>
<path fill-rule="evenodd" clip-rule="evenodd" d="M14.8533 39.8405C15.4608 40.9867 15.7525 41.5983 16.4613 42.6474C19.6611 40.5047 18.3407 41.5214 17.6643 38.6375C16.4896 38.9089 15.8051 39.3382 14.8533 39.8405Z" fill="#7A96CD"/>
<path fill-rule="evenodd" clip-rule="evenodd" d="M40.5763 24.9986C40.7424 27.0076 40.5034 25.5049 41.0421 26.5378C41.1758 26.7929 41.6092 27.4734 41.7833 27.8015C42.5813 27.4167 43.2212 27.2263 44.1934 26.9995C43.8653 25.5981 43.2658 24.8001 42.5853 23.7916C41.4148 24.5733 42.0426 24.6057 40.5723 24.9986H40.5763Z" fill="#7A96CD"/>
<path fill-rule="evenodd" clip-rule="evenodd" d="M13.6633 35.4326C13.6633 36.5141 13.8537 36.5384 14.0643 37.4376C15.8263 37.3971 15.3159 37.1662 16.8753 37.0366C16.2921 36.0037 16.4743 35.9592 16.4743 34.2296H13.6633V35.4326Z" fill="#7A96CD"/>
<path fill-rule="evenodd" clip-rule="evenodd" d="M28.1333 18.5817V20.1897H30.9443C30.9848 18.4278 31.2157 18.9422 31.3453 17.3828H27.7283C28.0078 17.8729 28.1333 17.808 28.1333 18.5857V18.5817Z" fill="#7A96CD"/>
<path fill-rule="evenodd" clip-rule="evenodd" d="M37.3418 21.7912C37.3418 21.8965 38.4354 25.951 40.9588 22.1922C40.1325 20.9528 39.8207 20.5761 38.1478 20.1872C37.7792 21.5725 37.3458 21.2484 37.3458 21.7952L37.3418 21.7912Z" fill="#7A96CD"/>
<path fill-rule="evenodd" clip-rule="evenodd" d="M18.0681 44.2547C18.9876 45.6278 19.0362 45.4982 20.4741 46.2597C21.3206 45.6399 21.4988 45.1215 22.0821 44.2547L20.146 42.5738C19.2063 43.2299 18.6878 43.4081 18.0681 44.2547Z" fill="#7A96CD"/>
<path fill-rule="evenodd" clip-rule="evenodd" d="M13.6633 31.0177V32.2206H16.4743V29.4137C15.5306 29.1909 15.2916 29.041 14.0643 29.0127C13.8537 29.9119 13.6633 29.9362 13.6633 31.0177Z" fill="#7A96CD"/>
<path fill-rule="evenodd" clip-rule="evenodd" d="M27.7283 49.0639H31.3453C31.2157 47.5045 30.9848 48.0189 30.9443 46.2569C28.5019 46.905 30.4218 46.7875 28.1333 46.2569C28.1333 47.946 28.2994 47.8771 27.7283 49.0639Z" fill="#7A96CD"/>
<path fill-rule="evenodd" clip-rule="evenodd" d="M31.7158 42.2459C31.9305 43.1613 32.0277 43.1694 32.1168 44.2509C33.093 44.024 33.7289 43.8337 34.5268 43.4489C34.1866 42.7441 34.0651 42.1487 33.7248 41.4439C32.8904 41.8854 32.7811 41.9907 31.7158 42.2459Z" fill="#9EB3DD"/>
<path fill-rule="evenodd" clip-rule="evenodd" d="M37.3418 27.8088C37.3418 28.7282 37.4795 28.2746 37.7428 29.4168C38.8243 29.3277 38.8324 29.2305 39.7518 29.0158C39.5817 26.9622 39.444 28.4731 38.9498 26.6058C38.4435 26.8731 37.3458 27.1567 37.3458 27.8088H37.3418Z" fill="#9EB3DD"/>
<path fill-rule="evenodd" clip-rule="evenodd" d="M31.7158 24.2012C32.4206 24.5415 33.016 24.663 33.7248 25.0032C34.0651 24.2984 34.1866 23.703 34.5268 22.9982C33.5507 22.7714 32.9147 22.581 32.1168 22.1963C32.0277 23.2777 31.9345 23.2899 31.7158 24.2012Z" fill="#9EB3DD"/>
<path fill-rule="evenodd" clip-rule="evenodd" d="M19.2782 32.6237C20.2017 32.6237 20.4812 32.3442 20.4812 31.4207C20.4812 30.0881 19.7602 30.2461 18.4722 30.2177C18.4317 31.8986 17.6621 32.6237 19.2742 32.6237H19.2782Z" fill="#9EB3DD"/>
<path fill-rule="evenodd" clip-rule="evenodd" d="M18.4697 36.2319C19.7536 36.2035 20.4787 36.3655 20.4787 35.0289C20.4787 34.1054 20.1992 33.8259 19.2757 33.8259C17.6596 33.8259 18.4332 34.5469 18.4737 36.2319H18.4697Z" fill="#9EB3DD"/>
<path fill-rule="evenodd" clip-rule="evenodd" d="M37.3458 38.2389C37.3458 39.3123 37.9251 39.4257 38.5488 39.8469C39.5169 39.1422 39.6222 39.0449 39.7518 37.441C38.5083 37.3357 38.9903 37.441 38.1438 37.04C37.921 37.36 37.3418 38.0242 37.3418 38.2389H37.3458Z" fill="#9EB3DD"/>
<path fill-rule="evenodd" clip-rule="evenodd" d="M24.467 22.9982C24.9045 23.8245 25.0219 23.9501 25.269 25.0032C25.9738 24.663 26.5692 24.5415 27.278 24.2012C27.0634 23.2858 26.9662 23.2777 26.877 22.1963C26.0791 22.577 25.4391 22.7714 24.467 22.9982Z" fill="#9EB3DD"/>
<path fill-rule="evenodd" clip-rule="evenodd" d="M19.2734 29.0122C20.3549 29.1014 20.363 29.2026 21.2825 29.4132C21.5822 28.1657 22.5016 27.2544 20.0795 26.6063C19.7878 27.8498 19.5651 27.7688 19.2775 29.0163L19.2734 29.0122Z" fill="#9EB3DD"/>
<path fill-rule="evenodd" clip-rule="evenodd" d="M34.946 40.6422C35.1891 41.6993 35.3106 41.8208 35.748 42.6471L37.8502 40.7313C36.9551 40.0548 36.4326 39.1921 34.946 40.6422Z" fill="#9EB3DD"/>
<path fill-rule="evenodd" clip-rule="evenodd" d="M24.467 43.4529C25.7146 43.7445 25.6336 43.9632 26.877 44.2549C27.0917 43.3395 27.1889 43.3314 27.278 42.2499C25.3014 41.776 25.589 41.1887 24.467 43.4529Z" fill="#9EB3DD"/>
<path fill-rule="evenodd" clip-rule="evenodd" d="M34.9501 25.8106C36.6675 27.0014 36.149 26.888 37.7611 25.8106L35.8412 23.7125C35.3146 24.6319 35.1972 24.7575 34.946 25.8106H34.9501Z" fill="#9EB3DD"/>
<path fill-rule="evenodd" clip-rule="evenodd" d="M28.4856 23.8016C30.0612 23.838 29.4293 23.6922 30.4946 24.2025C30.5351 22.5176 31.3087 21.7925 29.6926 21.7925H28.4896V23.8016H28.4856Z" fill="#9EB3DD"/>
<path fill-rule="evenodd" clip-rule="evenodd" d="M28.4896 44.6539H29.6926C31.2642 44.6539 30.604 43.9613 30.4946 42.649H28.4856V44.6539H28.4896Z" fill="#9EB3DD"/>
<path fill-rule="evenodd" clip-rule="evenodd" d="M21.623 40.957L23.227 42.7392C23.543 42.3261 24.1181 41.6618 24.1181 41.4471C24.1181 40.3738 23.5389 40.2604 22.9151 39.8391L21.623 40.957Z" fill="#9EB3DD"/>
<path fill-rule="evenodd" clip-rule="evenodd" d="M21.7042 25.4022L22.8222 26.6902L24.1993 25.4872C23.8105 24.8594 23.8915 24.9607 23.7092 24.1992C22.2592 24.3207 22.2592 24.3734 21.7002 25.4022H21.7042Z" fill="#9EB3DD"/>
<path fill-rule="evenodd" clip-rule="evenodd" d="M28.4856 40.6483C29.5549 41.1586 28.9149 41.0128 30.4946 41.0493C30.4136 40.0691 30.5392 39.583 29.6521 39.4818C28.4977 39.3481 28.9595 40.0124 28.4856 40.6483Z" fill="#D4DEF1"/>
<path fill-rule="evenodd" clip-rule="evenodd" d="M23.2914 37.8364L24.5794 36.7185C23.7086 36.1069 23.502 35.4264 22.7932 36.1352C22.0844 36.8441 22.7648 37.0506 23.2914 37.8324V37.8364Z" fill="#D4DEF1"/>
<path fill-rule="evenodd" clip-rule="evenodd" d="M21.7002 32.6214L23.292 33.071C23.2718 31.4468 23.4176 32.0827 22.9072 31.0134C21.7529 31.4265 22.1174 30.9891 21.7002 32.6214Z" fill="#D4DEF1"/>
<path fill-rule="evenodd" clip-rule="evenodd" d="M28.4856 25.8032C29.1701 27.0913 29.2349 27.9216 30.4946 26.2042C30.2921 25.8478 30.2354 25.4023 29.6926 25.4023C29.2228 25.4023 28.5828 25.6898 28.4896 25.8073L28.4856 25.8032Z" fill="#D4DEF1"/>
<path fill-rule="evenodd" clip-rule="evenodd" d="M30.9121 39.44C31.5966 40.728 31.6614 41.5584 32.9211 39.841C32.7186 39.4845 32.6619 39.039 32.1191 39.039C31.6533 39.039 31.0134 39.3266 30.9162 39.444L30.9121 39.44Z" fill="#D4DEF1"/>
<path fill-rule="evenodd" clip-rule="evenodd" d="M24.0806 27.8136C25.0486 29.535 25.7979 28.3604 26.0896 28.2146C24.7732 25.7317 24.0927 27.7326 24.0806 27.8136Z" fill="#D4DEF1"/>
<path fill-rule="evenodd" clip-rule="evenodd" d="M30.9162 27.0081C30.9162 27.0081 31.6655 27.4091 31.7181 27.4091C32.8482 27.4091 32.4594 27.2349 32.9211 26.6071C31.4751 24.6345 31.6209 26.0603 30.9121 27.0121L30.9162 27.0081Z" fill="#D4DEF1"/>
<path fill-rule="evenodd" clip-rule="evenodd" d="M24.0806 38.6349C25.3403 40.3523 25.4051 39.5219 26.0896 38.2339C25.2147 38.0273 24.2871 37.436 24.0806 38.6349Z" fill="#D4DEF1"/>
<path fill-rule="evenodd" clip-rule="evenodd" d="M26.1208 26.2017C26.8054 27.4897 26.8702 28.32 28.1299 26.6026C27.4899 25.7318 27.3117 25.7399 26.1208 26.2017Z" fill="#D4DEF1"/>
<path fill-rule="evenodd" clip-rule="evenodd" d="M22.1654 35.4138C23.5628 35.0412 23.1902 35.3936 23.3238 33.822H21.7158L22.1654 35.4138Z" fill="#D4DEF1"/>
<path d="M34.1945 37.7644L33.2305 38.5664L34.0325 39.5304L34.9965 38.7284L34.1945 37.7644Z" fill="#D4DEF1"/>
<path d="M34.1945 37.7644L33.2305 38.5664L34.0325 39.5304L34.9965 38.7284L34.1945 37.7644Z" stroke="#D4DEF1" stroke-width="0.19" stroke-miterlimit="22.93"/>
<path d="M34.1945 26.9268L33.2305 27.7287L34.0325 28.6927L34.9965 27.8908L34.1945 26.9268Z" fill="#D4DEF1"/>
<path d="M70.4082 32.6238C70.4082 33.9001 70.2492 35.0641 69.9312 36.1113C69.6132 37.1585 69.1316 38.0608 68.4863 38.8181C67.841 39.5755 67.018 40.1552 66.0313 40.5572C65.04 40.9639 63.8663 41.165 62.5149 41.165C61.1635 41.165 59.9898 40.9639 58.9984 40.5572C58.0071 40.1552 57.1888 39.5708 56.5435 38.8181C55.8982 38.0608 55.4165 37.1585 55.0985 36.1067C54.7806 35.0548 54.6216 33.886 54.6216 32.6004C54.6216 30.8847 54.9021 29.3887 55.468 28.1125C56.0291 26.8362 56.8989 25.8498 58.0726 25.1439C59.2463 24.4426 60.7333 24.0873 62.5429 24.0873C64.3526 24.0873 65.8256 24.4379 66.9853 25.1439C68.1449 25.8498 69.01 26.8362 69.5712 28.1171C70.1323 29.3981 70.4175 30.8987 70.4175 32.6191L70.4082 32.6238ZM58.3017 32.6238C58.3017 33.7832 58.4466 34.779 58.7366 35.6111C59.0265 36.4479 59.4848 37.0884 60.102 37.5372C60.7239 37.986 61.5235 38.2104 62.5055 38.2104C63.4875 38.2104 64.3152 37.986 64.9324 37.5372C65.5497 37.0884 66.0033 36.4433 66.2885 35.6111C66.5738 34.7743 66.714 33.7785 66.714 32.6238C66.714 30.8847 66.3867 29.5149 65.7367 28.5192C65.0867 27.5187 64.0159 27.0232 62.5242 27.0232C61.5329 27.0232 60.7239 27.2476 60.102 27.6964C59.4801 28.1452 59.0218 28.7903 58.7272 29.6225C58.4373 30.4593 58.2923 31.4597 58.2923 32.6238H58.3017Z" fill="#293A89"/>
<path d="M80.6056 28.0168C82.0365 28.0168 83.1915 28.5731 84.0706 29.6858C84.9497 30.7984 85.3939 32.4253 85.3939 34.5758C85.3939 36.011 85.1835 37.2218 84.772 38.1989C84.3558 39.1806 83.7806 39.9193 83.0465 40.4148C82.3123 40.9151 81.4706 41.1628 80.5167 41.1628C79.9041 41.1628 79.3804 41.0834 78.9409 40.9291C78.5013 40.7748 78.1272 40.5738 77.8186 40.326C77.51 40.0782 77.2387 39.8164 77.0143 39.5359H76.8319C76.8927 39.8398 76.9395 40.1484 76.9675 40.4663C76.9956 40.7842 77.0143 41.0927 77.0143 41.3966V46.511H73.554V28.2459H76.369L76.8553 29.8915H77.0143C77.2434 29.5502 77.5193 29.237 77.842 28.9518C78.1693 28.6666 78.5574 28.4376 79.0157 28.2646C79.4739 28.0916 80.0023 28.0075 80.6102 28.0075L80.6056 28.0168ZM79.4926 30.7844C78.8894 30.7844 78.4078 30.9106 78.0524 31.1584C77.697 31.4109 77.4398 31.7802 77.2762 32.2804C77.1125 32.7806 77.0236 33.4117 77.0096 34.1738V34.5478C77.0096 35.3659 77.0891 36.0578 77.2434 36.6234C77.3977 37.1891 77.6596 37.6192 78.0243 37.9184C78.3891 38.2129 78.8941 38.3625 79.5394 38.3625C80.0678 38.3625 80.5027 38.2129 80.844 37.9184C81.1854 37.6239 81.4379 37.1891 81.6109 36.6188C81.7793 36.0484 81.8681 35.3472 81.8681 34.5244C81.8681 33.2855 81.6764 32.3505 81.2883 31.7241C80.9002 31.0976 80.3063 30.7844 79.4973 30.7844H79.4926Z" fill="#293A89"/>
<path d="M93.6166 38.4084C93.9953 38.4084 94.3647 38.371 94.7248 38.2962C95.0849 38.2214 95.4402 38.1279 95.7956 38.0111V40.587C95.4262 40.7553 94.9633 40.8908 94.4162 41.003C93.8691 41.1106 93.2658 41.1667 92.6159 41.1667C91.8583 41.1667 91.1803 41.0451 90.5771 40.7973C89.9738 40.5496 89.5016 40.1242 89.1602 39.5164C88.8188 38.9087 88.6458 38.0578 88.6458 36.9685V30.8537H86.9905V29.3904L88.8983 28.231L89.899 25.5523H92.1108V28.2544H95.6647V30.8537H92.1108V36.9685C92.1108 37.4547 92.2465 37.8147 92.527 38.0531C92.8076 38.2916 93.1676 38.4131 93.6212 38.4131L93.6166 38.4084Z" fill="#293A89"/>
<path d="M100.116 23.2845C100.631 23.2845 101.075 23.4014 101.444 23.6398C101.819 23.8782 102.001 24.3224 102.001 24.9722C102.001 25.622 101.814 26.0568 101.444 26.3045C101.075 26.5523 100.631 26.6739 100.116 26.6739C99.602 26.6739 99.1485 26.5523 98.7837 26.3045C98.419 26.0614 98.2319 25.6173 98.2319 24.9722C98.2319 24.327 98.4143 23.8782 98.7837 23.6398C99.1485 23.4014 99.5974 23.2845 100.116 23.2845ZM101.842 28.254V40.9372H98.3816V28.254H101.842Z" fill="#293A89"/>
<path d="M120.352 28.0168C121.788 28.0168 122.877 28.3861 123.616 29.1248C124.355 29.8634 124.719 31.0415 124.719 32.6684V40.9384H121.245V33.5286C121.245 32.6217 121.091 31.9344 120.782 31.4763C120.474 31.0135 119.992 30.7844 119.342 30.7844C118.425 30.7844 117.775 31.1117 117.392 31.7662C117.004 32.4206 116.812 33.3556 116.812 34.5758V40.9384H113.352V33.5286C113.352 32.9255 113.282 32.416 113.146 32.0092C113.01 31.6025 112.805 31.294 112.524 31.0883C112.244 30.8826 111.884 30.7797 111.449 30.7797C110.803 30.7797 110.298 30.9434 109.934 31.2613C109.564 31.5838 109.307 32.056 109.153 32.6778C108.998 33.2995 108.919 34.0616 108.919 34.9638V40.9291H105.458V28.2459H108.101L108.568 29.8681H108.76C109.017 29.4287 109.34 29.0734 109.732 28.8022C110.121 28.5311 110.551 28.33 111.018 28.1992C111.486 28.0683 111.963 28.0075 112.449 28.0075C113.38 28.0075 114.17 28.1571 114.815 28.4609C115.461 28.7648 115.961 29.2323 116.307 29.8681H116.611C116.99 29.2183 117.523 28.7461 118.215 28.4516C118.907 28.1571 119.622 28.0122 120.352 28.0122V28.0168Z" fill="#293A89"/>
<path d="M139.9 28.255V40.9382H137.244L136.777 39.3159H136.594C136.323 39.746 135.982 40.1013 135.575 40.3725C135.168 40.6436 134.715 40.8447 134.224 40.9756C133.733 41.1065 133.223 41.1672 132.695 41.1672C131.787 41.1672 130.997 41.0083 130.324 40.6857C129.65 40.3631 129.127 39.8629 128.753 39.1804C128.378 38.4978 128.191 37.6143 128.191 36.525V28.255H131.652V35.6648C131.652 36.5717 131.815 37.259 132.138 37.7171C132.461 38.1799 132.98 38.409 133.695 38.409C134.411 38.409 134.953 38.2454 135.351 37.9275C135.753 37.6049 136.033 37.1327 136.197 36.511C136.361 35.8892 136.44 35.1272 136.44 34.2249V28.2596H139.9V28.255Z" fill="#293A89"/>
<path d="M152.407 37.1704C152.407 38.0352 152.206 38.7599 151.799 39.3536C151.397 39.9473 150.794 40.3961 149.989 40.7047C149.19 41.0085 148.189 41.1628 146.992 41.1628C146.108 41.1628 145.351 41.1067 144.715 40.9945C144.079 40.8823 143.448 40.6906 142.802 40.4288V37.5677C143.49 37.8763 144.228 38.1334 145.019 38.3344C145.809 38.5355 146.501 38.6336 147.1 38.6336C147.773 38.6336 148.255 38.5355 148.545 38.3344C148.834 38.1334 148.979 37.8716 148.979 37.5444C148.979 37.334 148.919 37.1423 148.802 36.9693C148.685 36.7964 148.432 36.6047 148.049 36.3897C147.661 36.1746 147.058 35.8941 146.235 35.5435C145.44 35.2116 144.79 34.875 144.275 34.5337C143.766 34.1924 143.387 33.7904 143.139 33.3276C142.896 32.8601 142.77 32.271 142.77 31.5511C142.77 30.3776 143.223 29.4941 144.135 28.9004C145.047 28.3066 146.267 28.0121 147.796 28.0121C148.582 28.0121 149.335 28.0916 150.05 28.2505C150.766 28.4095 151.5 28.6619 152.257 29.0126L151.215 31.509C150.588 31.2378 149.994 31.0134 149.438 30.8405C148.881 30.6675 148.315 30.5787 147.74 30.5787C147.235 30.5787 146.852 30.6488 146.595 30.7844C146.337 30.9199 146.211 31.1303 146.211 31.4108C146.211 31.6165 146.277 31.7942 146.408 31.9531C146.538 32.1121 146.796 32.2897 147.179 32.4814C147.563 32.6731 148.124 32.9208 148.863 33.2247C149.583 33.5192 150.205 33.8278 150.738 34.1503C151.266 34.4729 151.673 34.8703 151.963 35.3425C152.248 35.8146 152.393 36.4271 152.393 37.175L152.407 37.1704Z" fill="#293A89"/>
<path d="M166.581 31.1827L170.042 24.3526H173.829L168.325 34.4833V40.9394H164.832V34.6001L159.329 24.3573H163.14L166.577 31.1874L166.581 31.1827Z" fill="#293A89"/>
<path d="M180.823 27.9916C182.525 27.9916 183.83 28.3609 184.737 29.1043C185.644 29.8429 186.097 30.9742 186.097 32.4843V40.9366H183.68L183.011 39.2115H182.922C182.558 39.665 182.188 40.0343 181.809 40.3242C181.431 40.614 180.996 40.8244 180.505 40.96C180.014 41.0955 179.415 41.1657 178.709 41.1657C177.961 41.1657 177.288 41.0207 176.694 40.7356C176.1 40.4457 175.632 40.0063 175.291 39.4126C174.95 38.8188 174.781 38.0662 174.781 37.1499C174.781 35.8035 175.254 34.8124 176.198 34.1719C177.143 33.5314 178.564 33.1808 180.453 33.1107L182.656 33.0406V32.4843C182.656 31.8204 182.483 31.3295 182.132 31.021C181.786 30.7124 181.3 30.5535 180.678 30.5535C180.056 30.5535 179.462 30.6423 178.873 30.8153C178.284 30.9883 177.694 31.208 177.101 31.4745L175.955 29.137C176.628 28.7817 177.381 28.5012 178.218 28.2955C179.055 28.0898 179.92 27.9916 180.809 27.9916H180.823ZM182.661 35.0602L181.323 35.1069C180.206 35.135 179.425 35.336 178.99 35.71C178.555 36.084 178.335 36.5702 178.335 37.1732C178.335 37.7015 178.489 38.0802 178.803 38.2999C179.111 38.5243 179.518 38.6365 180.019 38.6365C180.757 38.6365 181.384 38.4168 181.898 37.9773C182.413 37.5379 182.665 36.9161 182.665 36.1074V35.0648L182.661 35.0602Z" fill="#293A89"/>
<path d="M198.506 40.9382H188.485V38.8952L194.363 30.8963H188.836V28.255H198.3V30.499L192.581 38.2921H198.506V40.9335V40.9382Z" fill="#293A89"/>
<path d="M204.49 40.9382H201.029V28.255H204.49V40.9382Z" fill="#293A89"/>
<path d="M211.556 40.9372H208.095V23.2845H211.556V40.9372Z" fill="#293A89"/>
<path d="M218.675 40.9382H215.215V28.255H218.675V40.9382Z" fill="#293A89"/>
<path d="M237.192 28.0168C238.628 28.0168 239.717 28.3861 240.456 29.1248C241.195 29.8634 241.56 31.0415 241.56 32.6684V40.9384H238.085V33.5286C238.085 32.6217 237.931 31.9344 237.622 31.4763C237.314 31.0135 236.832 30.7844 236.182 30.7844C235.266 30.7844 234.616 31.1117 234.232 31.7662C233.844 32.4206 233.652 33.3556 233.652 34.5758V40.9384H230.192V33.5286C230.192 32.9255 230.122 32.416 229.986 32.0092C229.851 31.6025 229.645 31.294 229.364 31.0883C229.084 30.8826 228.724 30.7797 228.289 30.7797C227.644 30.7797 227.139 30.9434 226.774 31.2613C226.404 31.5838 226.147 32.056 225.993 32.6778C225.839 33.2995 225.759 34.0616 225.759 34.9638V40.9291H222.299V28.2459H224.941L225.408 29.8681H225.6C225.857 29.4287 226.18 29.0734 226.573 28.8022C226.961 28.5311 227.391 28.33 227.859 28.1992C228.326 28.0683 228.803 28.0075 229.29 28.0075C230.22 28.0075 231.01 28.1571 231.656 28.4609C232.301 28.7648 232.801 29.2323 233.147 29.8681H233.451C233.83 29.2183 234.363 28.7461 235.055 28.4516C235.747 28.1571 236.463 28.0122 237.192 28.0122V28.0168Z" fill="#293A89"/>
</svg>
